<svg width="229" height="35" viewBox="0 0 229 35" fill="none" xmlns="http://www.w3.org/2000/svg">
<path d="M0.536 17.264C0.536 15.4507 0.898667 13.872 1.624 12.528C2.34933 11.1627 3.352 10.1173 4.632 9.392C5.912 8.64533 7.37333 8.272 9.016 8.272C11.1707 8.272 12.9413 8.80533 14.328 9.872C15.736 10.9387 16.6427 12.3893 17.048 14.224H14.648C14.3493 12.9653 13.6987 11.984 12.696 11.28C11.7147 10.5547 10.488 10.192 9.016 10.192C7.84267 10.192 6.78667 10.4587 5.848 10.992C4.90933 11.5253 4.16267 12.3253 3.608 13.392C3.07467 14.4373 2.808 15.728 2.808 17.264C2.808 18.8 3.07467 20.1013 3.608 21.168C4.16267 22.2347 4.90933 23.0347 5.848 23.568C6.78667 24.1013 7.84267 24.368 9.016 24.368C10.488 24.368 11.7147 24.016 12.696 23.312C13.6987 22.5867 14.3493 21.584 14.648 20.304H17.048C16.6427 22.096 15.736 23.536 14.328 24.624C12.92 25.712 11.1493 26.256 9.016 26.256C7.37333 26.256 5.912 25.8933 4.632 25.168C3.352 24.4213 2.34933 23.376 1.624 22.032C0.898667 20.6667 0.536 19.0773 0.536 17.264ZM20.161 17.232C20.161 15.44 20.513 13.872 21.217 12.528C21.9423 11.1627 22.9343 10.1173 24.193 9.392C25.473 8.64533 26.913 8.272 28.513 8.272C30.177 8.272 31.6063 8.656 32.801 9.424C34.017 10.192 34.8917 11.1733 35.425 12.368V8.528H37.665V26H35.425V22.128C34.8703 23.3227 33.985 24.3147 32.769 25.104C31.5743 25.872 30.145 26.256 28.481 26.256C26.9023 26.256 25.473 25.8827 24.193 25.136C22.9343 24.3893 21.9423 23.3333 21.217 21.968C20.513 20.6027 20.161 19.024 20.161 17.232ZM35.425 17.264C35.425 15.856 35.137 14.6187 34.561 13.552C33.985 12.4853 33.1957 11.664 32.193 11.088C31.2117 10.512 30.1237 10.224 28.929 10.224C27.6917 10.224 26.5823 10.5013 25.601 11.056C24.6197 11.6107 23.841 12.4213 23.265 13.488C22.7103 14.5333 22.433 15.7813 22.433 17.232C22.433 18.6613 22.7103 19.92 23.265 21.008C23.841 22.0747 24.6197 22.896 25.601 23.472C26.5823 24.0267 27.6917 24.304 28.929 24.304C30.1237 24.304 31.2117 24.016 32.193 23.44C33.1957 22.864 33.985 22.0427 34.561 20.976C35.137 19.9093 35.425 18.672 35.425 17.264ZM45.0188 11.632C45.5094 10.544 46.2561 9.70133 47.2588 9.104C48.2828 8.50667 49.5308 8.208 51.0028 8.208V10.544H50.3948C48.7734 10.544 47.4721 10.9813 46.4908 11.856C45.5094 12.7307 45.0188 14.192 45.0188 16.24V26H42.7788V8.528H45.0188V11.632ZM57.2845 10.416V21.264C57.2845 22.3307 57.4872 23.0667 57.8925 23.472C58.2978 23.8773 59.0125 24.08 60.0365 24.08H62.0845V26H59.6845C58.1058 26 56.9325 25.6373 56.1645 24.912C55.3965 24.1653 55.0125 22.9493 55.0125 21.264V10.416H52.5805V8.528H55.0125V4.144H57.2845V8.528H62.0845V10.416H57.2845ZM81.5868 16.368C81.5868 17.136 81.5654 17.7227 81.5228 18.128H67.0268C67.0908 19.4507 67.4108 20.5813 67.9868 21.52C68.5628 22.4587 69.3201 23.1733 70.2588 23.664C71.1974 24.1333 72.2214 24.368 73.3308 24.368C74.7814 24.368 75.9974 24.016 76.9788 23.312C77.9814 22.608 78.6428 21.6587 78.9628 20.464H81.3308C80.9041 22.1707 79.9868 23.568 78.5788 24.656C77.1921 25.7227 75.4428 26.256 73.3308 26.256C71.6881 26.256 70.2161 25.8933 68.9148 25.168C67.6134 24.4213 66.5894 23.376 65.8428 22.032C65.1174 20.6667 64.7548 19.0773 64.7548 17.264C64.7548 15.4507 65.1174 13.8613 65.8428 12.496C66.5681 11.1307 67.5814 10.0853 68.8828 9.36C70.1841 8.63467 71.6668 8.272 73.3308 8.272C74.9948 8.272 76.4454 8.63467 77.6828 9.36C78.9414 10.0853 79.9014 11.0667 80.5628 12.304C81.2454 13.52 81.5868 14.8747 81.5868 16.368ZM79.3148 16.304C79.3361 15.0027 79.0694 13.8933 78.5148 12.976C77.9814 12.0587 77.2454 11.3653 76.3068 10.896C75.3681 10.4267 74.3441 10.192 73.2348 10.192C71.5708 10.192 70.1521 10.7253 68.9788 11.792C67.8054 12.8587 67.1548 14.3627 67.0268 16.304H79.3148ZM86.805 5.232C86.357 5.232 85.973 5.072 85.653 4.752C85.333 4.432 85.173 4.03733 85.173 3.568C85.173 3.09867 85.333 2.71467 85.653 2.416C85.973 2.096 86.357 1.936 86.805 1.936C87.253 1.936 87.637 2.096 87.957 2.416C88.277 2.71467 88.437 3.09867 88.437 3.568C88.437 4.03733 88.277 4.432 87.957 4.752C87.637 5.072 87.253 5.232 86.805 5.232ZM87.925 8.528V26H85.685V8.528H87.925ZM95.2375 11.632C95.7282 10.544 96.4748 9.70133 97.4775 9.104C98.5015 8.50667 99.7495 8.208 101.222 8.208V10.544H100.614C98.9922 10.544 97.6908 10.9813 96.7095 11.856C95.7282 12.7307 95.2375 14.192 95.2375 16.24V26H92.9975V8.528H95.2375V11.632ZM103.567 17.232C103.567 15.44 103.919 13.872 104.623 12.528C105.349 11.1627 106.341 10.1173 107.599 9.392C108.879 8.64533 110.319 8.272 111.919 8.272C113.583 8.272 115.013 8.656 116.207 9.424C117.423 10.192 118.298 11.1733 118.831 12.368V8.528H121.071V26H118.831V22.128C118.277 23.3227 117.391 24.3147 116.175 25.104C114.981 25.872 113.551 26.256 111.887 26.256C110.309 26.256 108.879 25.8827 107.599 25.136C106.341 24.3893 105.349 23.3333 104.623 21.968C103.919 20.6027 103.567 19.024 103.567 17.232ZM118.831 17.264C118.831 15.856 118.543 14.6187 117.967 13.552C117.391 12.4853 116.602 11.664 115.599 11.088C114.618 10.512 113.53 10.224 112.335 10.224C111.098 10.224 109.989 10.5013 109.007 11.056C108.026 11.6107 107.247 12.4213 106.671 13.488C106.117 14.5333 105.839 15.7813 105.839 17.232C105.839 18.6613 106.117 19.92 106.671 21.008C107.247 22.0747 108.026 22.896 109.007 23.472C109.989 24.0267 111.098 24.304 112.335 24.304C113.53 24.304 114.618 24.016 115.599 23.44C116.602 22.864 117.391 22.0427 117.967 20.976C118.543 19.9093 118.831 18.672 118.831 17.264Z" fill="#2733C8"/>
<path d="M124.521 17.04C124.521 15.2053 124.862 13.5947 125.545 12.208C126.249 10.8213 127.198 9.75467 128.393 9.008C129.588 8.26133 130.921 7.888 132.393 7.888C133.566 7.888 134.633 8.13333 135.593 8.624C136.574 9.11467 137.342 9.776 137.897 10.608V2.32H143.369V26H137.897V23.44C137.385 24.2933 136.649 24.976 135.689 25.488C134.75 26 133.652 26.256 132.393 26.256C130.921 26.256 129.588 25.8827 128.393 25.136C127.198 24.368 126.249 23.2907 125.545 21.904C124.862 20.496 124.521 18.8747 124.521 17.04ZM137.897 17.072C137.897 15.7067 137.513 14.6293 136.745 13.84C135.998 13.0507 135.081 12.656 133.993 12.656C132.905 12.656 131.977 13.0507 131.209 13.84C130.462 14.608 130.089 15.6747 130.089 17.04C130.089 18.4053 130.462 19.4933 131.209 20.304C131.977 21.0933 132.905 21.488 133.993 21.488C135.081 21.488 135.998 21.0933 136.745 20.304C137.513 19.5147 137.897 18.4373 137.897 17.072ZM150.08 6.288C149.12 6.288 148.33 6.01067 147.712 5.456C147.114 4.88 146.816 4.176 146.816 3.344C146.816 2.49067 147.114 1.78667 147.712 1.232C148.33 0.655998 149.12 0.367998 150.08 0.367998C151.018 0.367998 151.786 0.655998 152.384 1.232C153.002 1.78667 153.312 2.49067 153.312 3.344C153.312 4.176 153.002 4.88 152.384 5.456C151.786 6.01067 151.018 6.288 150.08 6.288ZM152.8 8.144V26H147.328V8.144H152.8ZM163.549 7.888C164.808 7.888 165.907 8.144 166.845 8.656C167.805 9.168 168.541 9.84 169.053 10.672V8.144H174.525V25.968C174.525 27.6107 174.195 29.0933 173.533 30.416C172.893 31.76 171.901 32.8267 170.557 33.616C169.235 34.4053 167.581 34.8 165.597 34.8C162.952 34.8 160.808 34.1707 159.165 32.912C157.523 31.6747 156.584 29.9893 156.349 27.856H161.757C161.928 28.5387 162.333 29.072 162.973 29.456C163.613 29.8613 164.403 30.064 165.341 30.064C166.472 30.064 167.368 29.7333 168.029 29.072C168.712 28.432 169.053 27.3973 169.053 25.968V23.44C168.52 24.272 167.784 24.9547 166.845 25.488C165.907 26 164.808 26.256 163.549 26.256C162.077 26.256 160.744 25.8827 159.549 25.136C158.355 24.368 157.405 23.2907 156.701 21.904C156.019 20.496 155.677 18.8747 155.677 17.04C155.677 15.2053 156.019 13.5947 156.701 12.208C157.405 10.8213 158.355 9.75467 159.549 9.008C160.744 8.26133 162.077 7.888 163.549 7.888ZM169.053 17.072C169.053 15.7067 168.669 14.6293 167.901 13.84C167.155 13.0507 166.237 12.656 165.149 12.656C164.061 12.656 163.133 13.0507 162.365 13.84C161.619 14.608 161.245 15.6747 161.245 17.04C161.245 18.4053 161.619 19.4933 162.365 20.304C163.133 21.0933 164.061 21.488 165.149 21.488C166.237 21.488 167.155 21.0933 167.901 20.304C168.669 19.5147 169.053 18.4373 169.053 17.072ZM181.236 6.288C180.276 6.288 179.487 6.01067 178.868 5.456C178.271 4.88 177.972 4.176 177.972 3.344C177.972 2.49067 178.271 1.78667 178.868 1.232C179.487 0.655998 180.276 0.367998 181.236 0.367998C182.175 0.367998 182.943 0.655998 183.54 1.232C184.159 1.78667 184.468 2.49067 184.468 3.344C184.468 4.176 184.159 4.88 183.54 5.456C182.943 6.01067 182.175 6.288 181.236 6.288ZM183.956 8.144V26H178.484V8.144H183.956ZM197.874 21.36V26H195.09C193.106 26 191.559 25.52 190.45 24.56C189.34 23.5787 188.786 21.9893 188.786 19.792V12.688H186.61V8.144H188.786V3.792H194.258V8.144H197.842V12.688H194.258V19.856C194.258 20.3893 194.386 20.7733 194.642 21.008C194.898 21.2427 195.324 21.36 195.922 21.36H197.874ZM199.834 17.04C199.834 15.2053 200.175 13.5947 200.858 12.208C201.562 10.8213 202.511 9.75467 203.706 9.008C204.9 8.26133 206.234 7.888 207.706 7.888C208.964 7.888 210.063 8.144 211.002 8.656C211.962 9.168 212.698 9.84 213.21 10.672V8.144H218.682V26H213.21V23.472C212.676 24.304 211.93 24.976 210.97 25.488C210.031 26 208.932 26.256 207.674 26.256C206.223 26.256 204.9 25.8827 203.706 25.136C202.511 24.368 201.562 23.2907 200.858 21.904C200.175 20.496 199.834 18.8747 199.834 17.04ZM213.21 17.072C213.21 15.7067 212.826 14.6293 212.058 13.84C211.311 13.0507 210.394 12.656 209.306 12.656C208.218 12.656 207.29 13.0507 206.522 13.84C205.775 14.608 205.402 15.6747 205.402 17.04C205.402 18.4053 205.775 19.4933 206.522 20.304C207.29 21.0933 208.218 21.488 209.306 21.488C210.394 21.488 211.311 21.0933 212.058 20.304C212.826 19.5147 213.21 18.4373 213.21 17.072ZM228.112 2.32V26H222.64V2.32H228.112Z" fill="#F78585"/>
</svg>
